<svg id="visual" viewBox="0 0 960 200" width="960" height="200" xmlns="http://www.w3.org/2000/svg" xmlns:xlink="http://www.w3.org/1999/xlink" version="1.1"><path d="M0 37L17.8 46.3C35.7 55.7 71.3 74.3 106.8 85C142.3 95.7 177.7 98.3 213.2 89.7C248.7 81 284.3 61 320 62.7C355.7 64.3 391.3 87.7 426.8 93.3C462.3 99 497.7 87 533.2 82C568.7 77 604.3 79 640 78.7C675.7 78.3 711.3 75.7 746.8 68C782.3 60.3 817.7 47.7 853.2 50.7C888.7 53.7 924.3 72.3 942.2 81.7L960 91L960 0L942.2 0C924.3 0 888.7 0 853.2 0C817.7 0 782.3 0 746.8 0C711.3 0 675.7 0 640 0C604.3 0 568.7 0 533.2 0C497.7 0 462.3 0 426.8 0C391.3 0 355.7 0 320 0C284.3 0 248.7 0 213.2 0C177.7 0 142.3 0 106.8 0C71.3 0 35.7 0 17.8 0L0 0Z" fill="#0078e8"></path><path d="M0 107L17.8 111.7C35.7 116.3 71.3 125.7 106.8 131.7C142.3 137.7 177.7 140.3 213.2 142.3C248.7 144.3 284.3 145.7 320 145.7C355.7 145.7 391.3 144.3 426.8 144.7C462.3 145 497.7 147 533.2 142.3C568.7 137.7 604.3 126.3 640 122.3C675.7 118.3 711.3 121.7 746.8 121.7C782.3 121.7 817.7 118.3 853.2 118.3C888.7 118.3 924.3 121.7 942.2 123.3L960 125L960 89L942.2 79.7C924.3 70.3 888.7 51.7 853.2 48.7C817.7 45.7 782.3 58.3 746.8 66C711.3 73.7 675.7 76.3 640 76.7C604.3 77 568.7 75 533.2 80C497.7 85 462.3 97 426.8 91.3C391.3 85.7 355.7 62.3 320 60.7C284.3 59 248.7 79 213.2 87.7C177.7 96.3 142.3 93.7 106.8 83C71.3 72.3 35.7 53.7 17.8 44.3L0 35Z" fill="#84a2f1"></path><path d="M0 159L17.8 159.7C35.7 160.3 71.3 161.7 106.8 164.3C142.3 167 177.7 171 213.2 174C248.7 177 284.3 179 320 178C355.7 177 391.3 173 426.8 173C462.3 173 497.7 177 533.2 177.3C568.7 177.7 604.3 174.3 640 173.3C675.7 172.3 711.3 173.7 746.8 173C782.3 172.3 817.7 169.7 853.2 171.3C888.7 173 924.3 179 942.2 182L960 185L960 123L942.2 121.3C924.3 119.7 888.7 116.3 853.2 116.3C817.7 116.3 782.3 119.7 746.8 119.7C711.3 119.7 675.7 116.3 640 120.3C604.3 124.3 568.7 135.7 533.2 140.3C497.7 145 462.3 143 426.8 142.7C391.3 142.3 355.7 143.7 320 143.7C284.3 143.7 248.7 142.3 213.2 140.3C177.7 138.3 142.3 135.7 106.8 129.7C71.3 123.7 35.7 114.3 17.8 109.7L0 105Z" fill="#c5cff9"></path><path d="M0 201L17.8 201C35.7 201 71.3 201 106.8 201C142.3 201 177.7 201 213.2 201C248.7 201 284.3 201 320 201C355.7 201 391.3 201 426.8 201C462.3 201 497.7 201 533.2 201C568.7 201 604.3 201 640 201C675.7 201 711.3 201 746.8 201C782.3 201 817.7 201 853.2 201C888.7 201 924.3 201 942.2 201L960 201L960 183L942.2 180C924.3 177 888.7 171 853.2 169.3C817.7 167.7 782.3 170.3 746.8 171C711.3 171.7 675.7 170.3 640 171.3C604.3 172.3 568.7 175.7 533.2 175.3C497.7 175 462.3 171 426.8 171C391.3 171 355.7 175 320 176C284.3 177 248.7 175 213.2 172C177.7 169 142.3 165 106.8 162.3C71.3 159.7 35.7 158.3 17.8 157.7L0 157Z" fill="#ffffff"></path></svg>