<svg id="visual" viewBox="0 0 960 400" width="960" height="400" xmlns="http://www.w3.org/2000/svg" xmlns:xlink="http://www.w3.org/1999/xlink" version="1.1"><path d="M0 243L17.8 221.5C35.7 200 71.3 157 106.8 157.5C142.3 158 177.7 202 213.2 220.5C248.7 239 284.3 232 320 208.5C355.7 185 391.3 145 426.8 156.2C462.3 167.3 497.7 229.7 533.2 250.3C568.7 271 604.3 250 640 220.8C675.7 191.7 711.3 154.3 746.8 162.5C782.3 170.7 817.7 224.3 853.2 231.7C888.7 239 924.3 200 942.2 180.5L960 161L960 0L942.2 0C924.3 0 888.7 0 853.2 0C817.7 0 782.3 0 746.8 0C711.3 0 675.7 0 640 0C604.3 0 568.7 0 533.2 0C497.7 0 462.3 0 426.8 0C391.3 0 355.7 0 320 0C284.3 0 248.7 0 213.2 0C177.7 0 142.3 0 106.8 0C71.3 0 35.7 0 17.8 0L0 0Z" fill="#0078e8"></path><path d="M0 255L17.8 226.3C35.7 197.7 71.3 140.3 106.8 129.3C142.3 118.3 177.7 153.7 213.2 165.8C248.7 178 284.3 167 320 146.8C355.7 126.7 391.3 97.3 426.8 94.7C462.3 92 497.7 116 533.2 138.8C568.7 161.7 604.3 183.3 640 185.5C675.7 187.7 711.3 170.3 746.8 171.3C782.3 172.3 817.7 191.7 853.2 185.2C888.7 178.7 924.3 146.3 942.2 130.2L960 114L960 0L942.2 0C924.3 0 888.7 0 853.2 0C817.7 0 782.3 0 746.8 0C711.3 0 675.7 0 640 0C604.3 0 568.7 0 533.2 0C497.7 0 462.3 0 426.8 0C391.3 0 355.7 0 320 0C284.3 0 248.7 0 213.2 0C177.7 0 142.3 0 106.8 0C71.3 0 35.7 0 17.8 0L0 0Z" fill="#84a2f1"></path><path d="M0 58L17.8 64.7C35.7 71.3 71.3 84.7 106.8 94.8C142.3 105 177.7 112 213.2 115.2C248.7 118.3 284.3 117.7 320 128C355.7 138.3 391.3 159.7 426.8 148.8C462.3 138 497.7 95 533.2 95.2C568.7 95.3 604.3 138.7 640 159.3C675.7 180 711.3 178 746.8 172.7C782.3 167.3 817.7 158.7 853.2 151.7C888.7 144.7 924.3 139.3 942.2 136.7L960 134L960 0L942.2 0C924.3 0 888.7 0 853.2 0C817.7 0 782.3 0 746.8 0C711.3 0 675.7 0 640 0C604.3 0 568.7 0 533.2 0C497.7 0 462.3 0 426.8 0C391.3 0 355.7 0 320 0C284.3 0 248.7 0 213.2 0C177.7 0 142.3 0 106.8 0C71.3 0 35.7 0 17.8 0L0 0Z" fill="#c5cff9"></path><path d="M0 56L17.8 67C35.7 78 71.3 100 106.8 96.8C142.3 93.7 177.7 65.3 213.2 59C248.7 52.7 284.3 68.3 320 70.7C355.7 73 391.3 62 426.8 56.2C462.3 50.3 497.7 49.7 533.2 48.8C568.7 48 604.3 47 640 45.2C675.7 43.3 711.3 40.7 746.8 40.3C782.3 40 817.7 42 853.2 41.3C888.7 40.7 924.3 37.3 942.2 35.7L960 34L960 0L942.2 0C924.3 0 888.7 0 853.2 0C817.7 0 782.3 0 746.8 0C711.3 0 675.7 0 640 0C604.3 0 568.7 0 533.2 0C497.7 0 462.3 0 426.8 0C391.3 0 355.7 0 320 0C284.3 0 248.7 0 213.2 0C177.7 0 142.3 0 106.8 0C71.3 0 35.7 0 17.8 0L0 0Z" fill="#ffffff"></path></svg>