<svg id="visual" viewBox="0 0 960 200" width="960" height="200" xmlns="http://www.w3.org/2000/svg" xmlns:xlink="http://www.w3.org/1999/xlink" version="1.1"><path d="M0 146L14.5 144.5C29 143 58 140 87.2 143.5C116.3 147 145.7 157 174.8 155C204 153 233 139 262 133.5C291 128 320 131 349 134.8C378 138.7 407 143.3 436.2 146.8C465.3 150.3 494.7 152.7 523.8 158.2C553 163.7 582 172.3 611 167.8C640 163.3 669 145.7 698 135.5C727 125.3 756 122.7 785.2 123C814.3 123.3 843.7 126.7 872.8 138C902 149.3 931 168.7 945.5 178.3L960 188L960 0L945.5 0C931 0 902 0 872.8 0C843.7 0 814.3 0 785.2 0C756 0 727 0 698 0C669 0 640 0 611 0C582 0 553 0 523.8 0C494.7 0 465.3 0 436.2 0C407 0 378 0 349 0C320 0 291 0 262 0C233 0 204 0 174.8 0C145.7 0 116.3 0 87.2 0C58 0 29 0 14.5 0L0 0Z" fill="#0078e8"></path><path d="M0 109L14.5 104.5C29 100 58 91 87.2 89C116.3 87 145.7 92 174.8 101.3C204 110.7 233 124.3 262 128.8C291 133.3 320 128.7 349 123.7C378 118.7 407 113.3 436.2 106C465.3 98.7 494.7 89.3 523.8 89C553 88.7 582 97.3 611 103.3C640 109.3 669 112.7 698 110.2C727 107.7 756 99.3 785.2 104.5C814.3 109.7 843.7 128.3 872.8 137C902 145.7 931 144.3 945.5 143.7L960 143L960 0L945.5 0C931 0 902 0 872.8 0C843.7 0 814.3 0 785.2 0C756 0 727 0 698 0C669 0 640 0 611 0C582 0 553 0 523.8 0C494.7 0 465.3 0 436.2 0C407 0 378 0 349 0C320 0 291 0 262 0C233 0 204 0 174.8 0C145.7 0 116.3 0 87.2 0C58 0 29 0 14.5 0L0 0Z" fill="#84a2f1"></path><path d="M0 48L14.5 51.5C29 55 58 62 87.2 63.5C116.3 65 145.7 61 174.8 58.5C204 56 233 55 262 61.3C291 67.7 320 81.3 349 89.2C378 97 407 99 436.2 93.2C465.3 87.3 494.7 73.7 523.8 76.2C553 78.7 582 97.3 611 104.3C640 111.3 669 106.7 698 94.8C727 83 756 64 785.2 53.7C814.3 43.3 843.7 41.7 872.8 49C902 56.3 931 72.7 945.5 80.8L960 89L960 0L945.5 0C931 0 902 0 872.8 0C843.7 0 814.3 0 785.2 0C756 0 727 0 698 0C669 0 640 0 611 0C582 0 553 0 523.8 0C494.7 0 465.3 0 436.2 0C407 0 378 0 349 0C320 0 291 0 262 0C233 0 204 0 174.8 0C145.7 0 116.3 0 87.2 0C58 0 29 0 14.5 0L0 0Z" fill="#c5cff9"></path><path d="M0 25L14.5 28.3C29 31.7 58 38.3 87.2 47.2C116.3 56 145.7 67 174.8 64.8C204 62.7 233 47.3 262 43C291 38.7 320 45.3 349 52C378 58.7 407 65.3 436.2 64.2C465.3 63 494.7 54 523.8 52.3C553 50.7 582 56.3 611 51.3C640 46.3 669 30.7 698 27.2C727 23.7 756 32.3 785.2 33.2C814.3 34 843.7 27 872.8 21.2C902 15.3 931 10.7 945.5 8.3L960 6L960 0L945.5 0C931 0 902 0 872.8 0C843.7 0 814.3 0 785.2 0C756 0 727 0 698 0C669 0 640 0 611 0C582 0 553 0 523.8 0C494.7 0 465.3 0 436.2 0C407 0 378 0 349 0C320 0 291 0 262 0C233 0 204 0 174.8 0C145.7 0 116.3 0 87.2 0C58 0 29 0 14.5 0L0 0Z" fill="#ffffff"></path></svg>