<svg id="visual" viewBox="0 0 960 400" width="960" height="400" xmlns="http://www.w3.org/2000/svg" xmlns:xlink="http://www.w3.org/1999/xlink" version="1.1"><path d="M0 260L26.7 243C53.3 226 106.7 192 160 182.8C213.3 173.7 266.7 189.3 320 190.2C373.3 191 426.7 177 480 169C533.3 161 586.7 159 640 160.5C693.3 162 746.7 167 800 180.3C853.3 193.7 906.7 215.3 933.3 226.2L960 237L960 0L933.3 0C906.7 0 853.3 0 800 0C746.7 0 693.3 0 640 0C586.7 0 533.3 0 480 0C426.7 0 373.3 0 320 0C266.7 0 213.3 0 160 0C106.7 0 53.3 0 26.7 0L0 0Z" fill="#ffffff"></path><path d="M0 154L26.7 157.7C53.3 161.3 106.7 168.7 160 168C213.3 167.3 266.7 158.7 320 153C373.3 147.3 426.7 144.7 480 149.3C533.3 154 586.7 166 640 166.8C693.3 167.7 746.7 157.3 800 155.2C853.3 153 906.7 159 933.3 162L960 165L960 0L933.3 0C906.7 0 853.3 0 800 0C746.7 0 693.3 0 640 0C586.7 0 533.3 0 480 0C426.7 0 373.3 0 320 0C266.7 0 213.3 0 160 0C106.7 0 53.3 0 26.7 0L0 0Z" fill="#c5cff9"></path><path d="M0 138L26.7 137C53.3 136 106.7 134 160 126.2C213.3 118.3 266.7 104.7 320 104.5C373.3 104.3 426.7 117.7 480 121.5C533.3 125.3 586.7 119.7 640 117.2C693.3 114.7 746.7 115.3 800 116.5C853.3 117.7 906.7 119.3 933.3 120.2L960 121L960 0L933.3 0C906.7 0 853.3 0 800 0C746.7 0 693.3 0 640 0C586.7 0 533.3 0 480 0C426.7 0 373.3 0 320 0C266.7 0 213.3 0 160 0C106.7 0 53.3 0 26.7 0L0 0Z" fill="#84a2f1"></path><path d="M0 85L26.7 86.2C53.3 87.3 106.7 89.7 160 89.2C213.3 88.7 266.7 85.3 320 82.2C373.3 79 426.7 76 480 74.8C533.3 73.7 586.7 74.3 640 77.2C693.3 80 746.7 85 800 87.5C853.3 90 906.7 90 933.3 90L960 90L960 0L933.3 0C906.7 0 853.3 0 800 0C746.7 0 693.3 0 640 0C586.7 0 533.3 0 480 0C426.7 0 373.3 0 320 0C266.7 0 213.3 0 160 0C106.7 0 53.3 0 26.7 0L0 0Z" fill="#0078e8"></path></svg>