<svg id="visual" viewBox="0 0 960 100" width="960" height="100" xmlns="http://www.w3.org/2000/svg" xmlns:xlink="http://www.w3.org/1999/xlink" version="1.1"><path d="M0 31L6.2 32.2C12.3 33.3 24.7 35.7 37 36C49.3 36.3 61.7 34.7 74 40.5C86.3 46.3 98.7 59.7 111 65.2C123.3 70.7 135.7 68.3 148 61.2C160.3 54 172.7 42 185 39.8C197.3 37.7 209.7 45.3 221.8 49.7C234 54 246 55 258.2 52C270.3 49 282.7 42 295 41C307.3 40 319.7 45 332 46.5C344.3 48 356.7 46 369 46.2C381.3 46.3 393.7 48.7 406 47.2C418.3 45.7 430.7 40.3 443 37.3C455.3 34.3 467.7 33.7 480 39.2C492.3 44.7 504.7 56.3 517 59C529.3 61.7 541.7 55.3 554 53.2C566.3 51 578.7 53 591 49.3C603.3 45.7 615.7 36.3 628 35.5C640.3 34.7 652.7 42.3 665 44.2C677.3 46 689.7 42 701.8 41.5C714 41 726 44 738.2 42.8C750.3 41.7 762.7 36.3 775 33.3C787.3 30.3 799.7 29.7 812 29.5C824.3 29.3 836.7 29.7 849 34.7C861.3 39.7 873.7 49.3 886 48.7C898.3 48 910.7 37 923 39C935.3 41 947.7 56 953.8 63.5L960 71L960 0L953.8 0C947.7 0 935.3 0 923 0C910.7 0 898.3 0 886 0C873.7 0 861.3 0 849 0C836.7 0 824.3 0 812 0C799.7 0 787.3 0 775 0C762.7 0 750.3 0 738.2 0C726 0 714 0 701.8 0C689.7 0 677.3 0 665 0C652.7 0 640.3 0 628 0C615.7 0 603.3 0 591 0C578.7 0 566.3 0 554 0C541.7 0 529.3 0 517 0C504.7 0 492.3 0 480 0C467.7 0 455.3 0 443 0C430.7 0 418.3 0 406 0C393.7 0 381.3 0 369 0C356.7 0 344.3 0 332 0C319.7 0 307.3 0 295 0C282.7 0 270.3 0 258.2 0C246 0 234 0 221.8 0C209.7 0 197.3 0 185 0C172.7 0 160.3 0 148 0C135.7 0 123.3 0 111 0C98.7 0 86.3 0 74 0C61.7 0 49.3 0 37 0C24.7 0 12.3 0 6.2 0L0 0Z" fill="#fff" stroke-linecap="round" stroke-linejoin="miter"></path></svg>